<svg version="1" xmlns="http://www.w3.org/2000/svg" width="693.333" height="693.333" viewBox="0 0 520.000000 520.000000"><path d="M316.8 96.5c-.1.1-3.2.5-6.8.8-18.4 1.7-41.7 8.8-59 18-13.6 7.4-31.3 20.5-39.8 29.7-1.3 1.4-4.2 4.5-6.5 7-4 4.3-9.7 11.5-9.7 12.2 0 .2 9.6.3 21.3.3h21.3l5.5-4.6c17-14.5 41.2-25.6 64.2-29.4 11.2-1.9 36.7-1.4 47.2.9 17.6 3.9 32.5 10.1 46.5 19.5 10.4 6.9 12.4 8.6 21.6 17.9 15.8 16.1 27.3 36.3 33 58.1 3.4 13.3 3.9 17.6 3.8 35.1 0 14.5-.3 16.9-3.9 33-3 13.8-14.6 36.2-25.4 49-44.3 52.8-118.3 63.5-176.1 25.5-8.9-5.9-24.9-21.1-30.5-28.9l-4-5.6H211c-8.4-.1-26.3-.1-28.8 0-.8 0-.3 1.4 1.3 4 1.4 2.2 2.5 4.2 2.5 4.4 0 .2 2 3.4 4.4 7 27.8 41.5 68.5 66.6 118.6 73.3 7.2.9 30.7.9 39 0 16-1.9 36.4-7.9 52-15.4 47.7-22.9 82.4-69.5 90.5-121.3.3-2.5.9-5.9 1.2-7.5.3-1.7.6-8.6.8-15.5 1.1-50.7-20.5-97.6-60-130.5-10.8-9.1-26.3-18.2-43.5-25.8-6.3-2.8-23.3-7.4-33.5-9.2-8.4-1.4-37.6-3-38.7-2z"/><path d="M218.7 182.7c-.1.1-43.2.4-95.7.8-116.2.8-117 .8-119.6 2.3-3.9 2.1-3.5 5.6 1.1 12 6.5 8.9 15 17.7 20.7 21.3l5.1 3.3 43.6-.3c24-.2 58.9-.4 77.6-.6 18.7-.2 47.8-.4 64.6-.4 24.7-.1 30.9-.4 32.5-1.5 1.7-1.3 1.9-3 2.2-17.8.4-14.6.2-16.5-1.4-17.8-1.3-1.2-5-1.5-16.1-1.5-8 0-14.5.1-14.6.2z"/><path d="M260.9 191.8c0 4.2-.1 22.8-.2 41.2l-.2 33.5-57.7.3-57.8.2V290.3l7.3 7.1c8.4 8.3 20.6 15 34.7 18.9 7.9 2.2 10 2.4 30 2.1 11.8-.1 62.4-.5 112.4-.9 98.5-.7 92.9-.3 96.7-6.2 1.7-2.5 1.9-5.1 1.9-24.9v-22.1l-3.2-4.4c-4.1-5.7-6.3-7.5-12.5-10.5-5-2.4-10.9-3.6-18.3-3.8-3.3-.1-3.7-.5-6.7-6.7-3.3-6.6-9.9-14.4-16.1-18.7-4.2-3-14.4-6.8-20.7-7.8-2.8-.4-5.3-.9-5.7-1-.5-.1-3-.2-5.7-.3l-4.8-.1-3.2-6.4c-4.5-9.1-11.4-14.2-24.6-18.1-4.7-1.4-10.3-1.9-25.7-2.1l-19.8-.3-.1 7.7zm92.7 41.7c1.7 2.4 1.7 5.5 0 7.7-1.1 1.5-3 1.8-12.4 1.8-10.3 0-11.2-.2-12.6-2.2-2.1-2.9-2-5 .3-7.4 1.6-1.8 3-2 12.6-1.9 9.3.1 10.9.3 12.1 2z"/><path d="M174.7 226.7c-.1.1-24 .3-53 .5-29 .1-53.6.6-54.7 1-1 .4-2.3 1.6-2.9 2.7-.9 1.6-.3 3.2 3.8 9.3 5.4 8 12 15 16.3 17.3 2.9 1.4.7 1.4 144.8.2l19.4-.2 1.3-2.5c1.8-3.4 1.8-26.6.1-27.7-1-.6-74.5-1.3-75.1-.6z"/></svg>